<?xml version="1.0" encoding="utf-8"?>
<svg viewBox="0 0 4.837 4.063" xmlns="http://www.w3.org/2000/svg">
  <path d="M 3.7279999999999998 1.9609999999999999 L 4.566 1.9609999999999999 L 4.566 2.303 L 3.832 2.303 L 3.448 3.026 C 3.416 3.086 3.351 3.12 3.283 3.116 C 3.215 3.111 3.157 3.066 3.135 3.001 L 2.848 2.163 L 2.591 2.774 C 2.5620000000000003 2.8440000000000003 2.491 2.885 2.414 2.8770000000000002 C 2.339 2.869 2.278 2.8120000000000003 2.265 2.738 L 2.025 1.259 L 1.7389999999999999 3.505 C 1.728 3.588 1.658 3.651 1.574 3.653 L 1.57 3.653 C 1.488 3.653 1.417 3.5949999999999998 1.4020000000000001 3.5140000000000002 L 1.068 1.774 L 0.8610000000000001 2.206 C 0.8320000000000001 2.265 0.772 2.303 0.706 2.303 L 0 2.303 L 0 1.9609999999999999 L 0.598 1.9609999999999999 L 0.984 1.158 C 1.015 1.091 1.088 1.053 1.16 1.062 C 1.233 1.072 1.292 1.127 1.306 1.2 L 1.541 2.426 L 1.832 0.14100000000000001 C 1.843 0.057 1.9140000000000001 0.002 1.998 0 C 2.077 -0.005 2.1550000000000002 0.058 2.17 0.14100000000000001 L 2.499 2.11 L 2.707 1.615 C 2.735 1.55 2.798 1.509 2.871 1.5110000000000001 C 2.942 1.513 3.004 1.5590000000000002 3.027 1.627 L 3.331 2.516 L 3.577 2.052 C 3.607 1.996 3.665 1.9609999999999999 3.7279999999999998 1.9609999999999999 Z" style="fill: rgb(248, 56, 3);"/>
</svg>